HIERARCHY
ROOT SpineBase
{
  OFFSET 0.000000 0.000000 0.000000
  CHANNELS 6 Xposition Yposition Zposition Zrotation Xrotation Yrotation
  JOINT SpineMid
  {
    OFFSET -0.000000 28.318301 0.000000
    CHANNELS 3 Zrotation Xrotation Yrotation
    JOINT SpineShoulder
    {
      OFFSET -0.075535 21.036209 -0.712694
      CHANNELS 3 Zrotation Xrotation Yrotation
      JOINT Neck
      {
        OFFSET -0.048820 6.951501 -0.543186
        CHANNELS 3 Zrotation Xrotation Yrotation
        JOINT Head
        {
          OFFSET 3.756390 13.060546 -0.892959
          CHANNELS 3 Zrotation Xrotation Yrotation
          End Site
          {
            OFFSET 0 0 0
          }
        }
      }
      JOINT ShoulderLeft
      {
        OFFSET -14.015264 -3.863915 -7.338177
        CHANNELS 3 Zrotation Xrotation Yrotation
        JOINT ElbowLeft
        {
          OFFSET -5.009340 -24.446146 0.415850
          CHANNELS 3 Zrotation Xrotation Yrotation
          JOINT WristLeft
          {
            OFFSET 0.804968 -21.790351 -5.317785
            CHANNELS 3 Zrotation Xrotation Yrotation
            JOINT HandLeft
            {
              OFFSET 0.755501 -6.312471 1.353782
              CHANNELS 3 Zrotation Xrotation Yrotation
              JOINT HandTipLeft
              {
                OFFSET 0.829207 -6.049893 0.314833
                CHANNELS 3 Zrotation Xrotation Yrotation
                End Site
                {
                  OFFSET 0 0 0
                }
              }
              JOINT ThumbLeft
              {
                OFFSET -3.385795 -0.231739 -2.242602
                CHANNELS 3 Zrotation Xrotation Yrotation
                End Site
                {
                  OFFSET 0 0 0
                }
              }
            }
          }
        }
      }
      JOINT ShoulderRight
      {
        OFFSET 15.632110 -5.628300 1.771852
        CHANNELS 3 Zrotation Xrotation Yrotation
        JOINT ElbowRight
        {
          OFFSET 2.825817 -26.975576 4.761393
          CHANNELS 3 Zrotation Xrotation Yrotation
          JOINT WristRight
          {
            OFFSET 2.437839 -21.070911 -4.096098
            CHANNELS 3 Zrotation Xrotation Yrotation
            JOINT HandRight
            {
              OFFSET -0.501266 -4.852368 -0.354427
              CHANNELS 3 Zrotation Xrotation Yrotation
              JOINT HandTipRight
              {
                OFFSET -1.096677 -5.972048 -3.148062
                CHANNELS 3 Zrotation Xrotation Yrotation
                End Site
                {
                  OFFSET 0 0 0
                }
              }
              JOINT ThumbRight
              {
                OFFSET 0.825342 0.006865 -1.194154
                CHANNELS 3 Zrotation Xrotation Yrotation
                End Site
                {
                  OFFSET 0 0 0
                }
              }
            }
          }
        }
      }
    }
  }
  JOINT HipLeft
  {
    OFFSET -5.797567 0.765973 -5.145694
    CHANNELS 3 Zrotation Xrotation Yrotation
    JOINT KneeLeft
    {
      OFFSET -6.052464 -28.234579 7.260538
      CHANNELS 3 Zrotation Xrotation Yrotation
      JOINT AnkleLeft
      {
        OFFSET -4.382321 -31.330568 10.968794
        CHANNELS 3 Zrotation Xrotation Yrotation
        JOINT FootLeft
        {
          OFFSET 2.493819 -4.166710 -11.734393
          CHANNELS 3 Zrotation Xrotation Yrotation
          End Site
          {
            OFFSET 0 0 0
          }
        }
      }
    }
  }
  JOINT HipRight
  {
    OFFSET 5.446949 0.161900 -1.459294
    CHANNELS 3 Zrotation Xrotation Yrotation
    JOINT KneeRight
    {
      OFFSET -4.623317 -28.832547 9.060204
      CHANNELS 3 Zrotation Xrotation Yrotation
      JOINT AnkleRight
      {
        OFFSET -8.286771 -32.413289 10.657990
        CHANNELS 3 Zrotation Xrotation Yrotation
        JOINT FootRight
        {
          OFFSET 2.302069 -3.690081 -12.533175
          CHANNELS 3 Zrotation Xrotation Yrotation
          End Site
          {
            OFFSET 0 0 0
          }
        }
      }
    }
  }
}
MOTION
Frames: 6
Frame Time: 0.033333
14.871666 65.299725 368.282952 -6.333767 -5.544966 -19.476251 0.348676 -0.651215 18.892716 -0.093515 -0.307370 -0.315893 -7.148869 -7.791135 3.139345 0.000000 0.000000 0.000000 -2.966730 1.984745 1.635517 5.011014 -2.773150 -0.300459 10.738042 -8.464442 -1.366524 -27.020747 12.893644 5.078916 0.000000 0.000000 0.000000 0.000000 0.000000 0.000000 3.832658 -7.148162 -1.690782 -2.651129 7.109683 2.653596 -23.664992 -12.148645 2.162515 19.536278 12.706235 0.408906 0.000000 0.000000 0.000000 0.000000 0.000000 0.000000 5.679847 10.895414 18.701399 0.198860 -2.296271 0.911804 -2.388036 -0.087426 -1.684824 0.000000 0.000000 0.000000 6.084235 9.930201 19.150358 -2.101040 -0.205811 -0.810829 -0.680119 -6.384627 -2.572947 0.000000 0.000000 0.000000
14.853969 65.395089 368.273984 -6.377214 -5.769070 -19.538654 0.410274 -0.640107 18.936491 -0.151904 -0.223268 -0.311692 -7.424321 -7.406025 3.104015 0.000000 0.000000 0.000000 -3.067476 1.747386 1.708020 4.949020 -2.461764 -0.333764 11.478077 -9.333955 -1.365551 -28.015524 12.590792 5.239144 0.000000 0.000000 0.000000 0.000000 0.000000 0.000000 3.346014 -7.597688 -1.860697 -6.859184 13.785433 5.755043 -17.885838 -5.837187 -0.525984 13.302221 2.976538 4.786919 0.000000 0.000000 0.000000 0.000000 0.000000 0.000000 5.735059 11.361368 18.719820 -0.162677 -2.417540 0.820861 -2.509853 -2.976675 -2.625411 0.000000 0.000000 0.000000 6.039923 10.426843 19.166210 -1.903978 -0.811852 -0.608096 -1.005418 -6.083954 -2.722055 0.000000 0.000000 0.000000
14.794932 65.481560 368.246518 -6.498515 -5.865411 -19.492427 0.441630 -0.541075 18.877013 -0.231114 -0.132484 -0.310430 -7.277308 -7.609406 3.113554 0.000000 0.000000 0.000000 -3.019552 1.273572 1.754437 4.833122 -2.074931 -0.359570 10.508093 -10.037082 -1.744650 -26.523297 11.879377 5.168112 0.000000 0.000000 0.000000 0.000000 0.000000 0.000000 3.354628 -8.309784 -1.963933 -11.427618 20.136121 9.268061 -11.896839 -3.758833 -3.096269 11.054613 -5.530873 5.690148 0.000000 0.000000 0.000000 0.000000 0.000000 0.000000 5.996742 11.698801 18.641304 -0.777604 -2.356241 0.601142 -2.417275 -5.643957 -3.382004 0.000000 0.000000 0.000000 6.290318 10.753367 19.108260 -1.846538 -1.332354 -0.458651 -1.307757 -5.719003 -2.881257 0.000000 0.000000 0.000000
14.805575 65.551896 368.234410 -6.517574 -5.873930 -19.464475 0.373595 -0.470592 18.852324 -0.232333 -0.089983 -0.310375 -6.887532 -8.193383 3.195331 0.000000 0.000000 0.000000 -3.026819 0.757251 1.792058 4.738449 -1.821883 -0.404330 9.616236 -8.451494 -1.955829 -24.465708 11.120720 4.506322 0.000000 0.000000 0.000000 0.000000 0.000000 0.000000 3.450755 -8.934949 -2.021306 -16.111400 24.558690 12.760377 -2.121727 -3.757998 -4.609041 5.748484 -16.023412 6.430456 0.000000 0.000000 0.000000 0.000000 0.000000 0.000000 6.031082 11.858325 18.590640 -1.143360 -2.333960 0.466631 -2.353717 -7.701220 -3.997121 0.000000 0.000000 0.000000 6.342098 10.950355 19.069232 -1.758293 -1.760451 -0.327339 -1.500776 -5.445790 -2.992487 0.000000 0.000000 0.000000
14.890903 65.614325 368.201764 -6.419168 -5.856898 -19.473654 0.234376 -0.411237 18.878724 -0.214599 -0.006681 -0.305167 -6.535835 -8.682576 3.239245 0.000000 0.000000 0.000000 -2.958727 0.261390 1.801096 4.503818 -1.610426 -0.419229 8.589526 -5.602589 -2.055217 -20.563286 9.733489 3.243143 0.000000 0.000000 0.000000 0.000000 0.000000 0.000000 3.417401 -9.006884 -2.011543 -19.329760 27.480182 15.313073 4.132176 -10.314490 -5.423177 1.652562 -16.349220 6.662597 0.000000 0.000000 0.000000 0.000000 0.000000 0.000000 5.847294 11.891065 18.591482 -1.492356 -2.157468 0.298596 -2.079117 -9.175318 -4.321380 0.000000 0.000000 0.000000 6.171630 11.034150 19.070508 -1.657698 -2.087483 -0.219833 -1.568669 -5.243080 -3.068676 0.000000 0.000000 0.000000
15.015018 65.659336 368.179103 -6.237953 -5.824780 -19.477335 0.078355 -0.378656 18.906949 -0.152305 0.051513 -0.297967 -6.348325 -9.264768 3.304264 0.000000 0.000000 0.000000 -2.960519 -0.040297 1.790649 4.306371 -1.570804 -0.421054 7.857724 -3.133586 -2.044033 -15.818959 9.677697 2.438273 0.000000 0.000000 0.000000 0.000000 0.000000 0.000000 3.211506 -9.200243 -2.037670 -21.147387 29.146399 16.888917 9.883727 -21.303187 -4.923606 -4.279622 -11.987952 7.998400 0.000000 0.000000 0.000000 0.000000 0.000000 0.000000 5.535772 11.872141 18.593182 -1.620874 -2.193838 0.245944 -1.853971 -9.642429 -4.455941 0.000000 0.000000 0.000000 5.871887 11.037161 19.071553 -1.517601 -2.330701 -0.120099 -1.597013 -5.104771 -3.162676 0.000000 0.000000 0.000000
